<svg id="Ebene_1" data-name="Ebene 1" xmlns="http://www.w3.org/2000/svg" viewBox="0 0 111.95 111.48"><defs><style>.cls-1{fill:#5faaff;}.cls-2{fill:#000f28;}</style></defs><title>Zeichenfläche 1 Kopie</title><path class="cls-1" d="M80.06,14.08A48.52,48.52,0,0,0,68.42,9.27,48.12,48.12,0,0,0,31.89,97.4a48.61,48.61,0,0,0,11.63,4.81A48.12,48.12,0,0,0,80.06,14.08M28.24,103.71a55.48,55.48,0,1,1,13.4,5.54,56,56,0,0,1-13.4-5.54"/><path class="cls-1" d="M96.71,44.82a1,1,0,0,0-1-.74L61.14,46.79,46.22,15.53A1,1,0,0,0,45.06,15a1,1,0,0,0-.74,1L47,50.57,15.77,65.49a1,1,0,0,0-.54,1.17,1,1,0,0,0,1.05.73l34.53-2.7L65.73,95.94a1,1,0,0,0,.9.57,1.15,1.15,0,0,0,.26,0,1,1,0,0,0,.74-1L64.92,60.91,96.18,46A1,1,0,0,0,96.71,44.82ZM56,60.49a4.75,4.75,0,1,1,4.76-4.75A4.75,4.75,0,0,1,56,60.49Z"/><path class="cls-2" d="M109.62,85.56,66.24,53,87.52,3.09a1,1,0,0,0-1.72-1L53.22,45.47,3.32,24.19a1,1,0,0,0-1,1.72L45.71,58.49l-21.28,49.9a1,1,0,0,0,.42,1.26,1,1,0,0,0,.5.13,1,1,0,0,0,.8-.4L58.72,66l49.91,21.28a1,1,0,0,0,1.25-.42A1,1,0,0,0,109.62,85.56ZM56,60.49a4.75,4.75,0,1,1,4.76-4.75A4.75,4.75,0,0,1,56,60.49Z"/></svg>